#N canvas 330 39 762 642 10;
#X obj 71 120 random 100;
#X floatatom 146 127 5 0 0 0 - - -;
#X obj 202 115 i;
#X obj 71 59 inlet;
#X obj 71 80 t b f;
#X obj 71 267 outlet;
#X obj 202 94 array get \$1;
#X obj 71 141 < 100;
#X obj 71 183 sel 1;
#X obj 71 219 f \$2;
#X connect 0 0 7 0;
#X connect 1 0 7 1;
#X connect 2 0 1 0;
#X connect 3 0 4 0;
#X connect 4 0 0 0;
#X connect 4 1 6 0;
#X connect 6 0 2 0;
#X connect 7 0 8 0;
#X connect 8 0 9 0;
#X connect 9 0 5 0;
