#N canvas -9 -9 1920 976 10;
#X obj 9 78 route HP;
#X obj 153 32 tgl 15 0 empty empty empty 17 7 0 10 -262144 -1 -1 0
1;
#X msg 154 49 \; pd dsp \$1;
#X obj 73 78 route seen;
#X obj 417 13 bng 15 250 50 0 empty empty empty 17 7 0 10 -262144 -1
-1;
#N canvas 0 50 450 250 (subpatch) 0;
#X array ambience 3.52823e+006 float 2;
#X coords 0 1 3.52823e+006 -1 200 140 1;
#X restore 75 304 graph;
#N canvas 0 50 450 250 (subpatch) 0;
#X array suspense 3.52823e+006 float 2;
#X coords 0 1 3.52823e+006 -1 200 140 1;
#X restore 373 309 graph;
#N canvas 0 50 450 250 (subpatch) 0;
#X array action 3.52823e+006 float 2;
#X coords 0 1 3.52823e+006 -1 200 140 1;
#X restore 652 316 graph;
#N canvas -9 -9 1920 976 network 0;
#X obj 10 12 netreceive -u -b 3001;
#X obj 10 44 oscparse;
#X obj 10 78 list trim;
#X obj 10 112 route 127.0.0.1:3001;
#X obj 10 148 outlet;
#X connect 0 0 1 0;
#X connect 1 0 2 0;
#X connect 2 0 3 0;
#X connect 3 0 4 0;
#X restore 9 25 pd network;
#X obj 153 13 route start;
#X floatatom 307 128 5 0 1 0 - - -;
#N canvas -469 259 1920 976 layer 0;
#X obj 212 171 phasor~;
#X obj 183 200 *~;
#X obj 239 190 r sampleSize;
#X floatatom 212 141 5 0 0 0 - - -;
#X obj 222 115 hsl 128 15 -1 2 0 0 empty empty empty -2 -8 0 10 -262144
-1 -1 0 1;
#X text 249 85 Playback Speed;
#X msg 211 84 0.135;
#X obj 24 85 soundfiler;
#X floatatom 41 105 10 0 0 0 - - -;
#X obj 130 119 s sampleSize;
#X obj 24 130 expr 44100 / $f1;
#X floatatom 26 181 5 0 0 0 - - -;
#X text 58 175 Original Speed;
#X obj 24 53 inlet;
#X obj 166 250 outlet~;
#X connect 0 0 1 0;
#X connect 1 0 14 0;
#X connect 2 0 1 1;
#X connect 3 0 0 0;
#X connect 4 0 3 0;
#X connect 6 0 4 0;
#X connect 7 0 8 0;
#X connect 7 0 10 0;
#X connect 8 0 9 0;
#X connect 10 0 0 0;
#X connect 10 0 11 0;
#X connect 13 0 7 0;
#X restore 187 128 pd layer;
#X obj 187 217 *~;
#X obj 187 252 dac~ 1 2;
#X obj 307 166 vsl 30 50 0 1 0 0 empty empty empty 0 -9 0 10 -262144
-1 -1 0 1;
#X text 266 223 Volume Slider;
#X floatatom 539 128 5 0 1 0 - - -;
#N canvas -469 259 1920 976 layer 0;
#X obj 212 171 phasor~;
#X obj 183 200 *~;
#X obj 239 190 r sampleSize;
#X floatatom 212 141 5 0 0 0 - - -;
#X obj 222 115 hsl 128 15 -1 2 0 0 empty empty empty -2 -8 0 10 -262144
-1 -1 0 1;
#X text 249 85 Playback Speed;
#X msg 211 84 0.135;
#X obj 24 85 soundfiler;
#X floatatom 41 105 10 0 0 0 - - -;
#X obj 130 119 s sampleSize;
#X obj 24 130 expr 44100 / $f1;
#X floatatom 26 181 5 0 0 0 - - -;
#X text 58 175 Original Speed;
#X obj 24 53 inlet;
#X obj 166 250 outlet~;
#X connect 0 0 1 0;
#X connect 1 0 14 0;
#X connect 2 0 1 1;
#X connect 3 0 0 0;
#X connect 4 0 3 0;
#X connect 6 0 4 0;
#X connect 7 0 8 0;
#X connect 7 0 10 0;
#X connect 8 0 9 0;
#X connect 10 0 0 0;
#X connect 10 0 11 0;
#X connect 13 0 7 0;
#X restore 419 128 pd layer;
#X obj 420 217 *~;
#X obj 420 252 dac~ 1 2;
#X obj 539 166 vsl 30 50 0 1 0 0 empty empty empty 0 -9 0 10 -262144
-1 -1 0 1;
#X text 498 223 Volume Slider;
#X obj 187 175 tabread4~ ambience;
#X obj 419 175 tabread4~ suspense;
#X floatatom 783 129 5 0 1 0 - - -;
#N canvas -469 259 1920 976 layer 0;
#X obj 212 171 phasor~;
#X obj 183 200 *~;
#X obj 239 190 r sampleSize;
#X floatatom 212 141 5 0 0 0 - - -;
#X obj 222 115 hsl 128 15 -1 2 0 0 empty empty empty -2 -8 0 10 -262144
-1 -1 0 1;
#X text 249 85 Playback Speed;
#X msg 211 84 0.135;
#X obj 24 85 soundfiler;
#X floatatom 41 105 10 0 0 0 - - -;
#X obj 130 119 s sampleSize;
#X obj 24 130 expr 44100 / $f1;
#X floatatom 26 181 5 0 0 0 - - -;
#X text 58 175 Original Speed;
#X obj 24 53 inlet;
#X obj 166 250 outlet~;
#X connect 0 0 1 0;
#X connect 1 0 14 0;
#X connect 2 0 1 1;
#X connect 3 0 0 0;
#X connect 4 0 3 0;
#X connect 6 0 4 0;
#X connect 7 0 8 0;
#X connect 7 0 10 0;
#X connect 8 0 9 0;
#X connect 10 0 0 0;
#X connect 10 0 11 0;
#X connect 13 0 7 0;
#X restore 673 129 pd layer;
#X obj 674 218 *~;
#X obj 674 253 dac~ 1 2;
#X obj 783 167 vsl 30 50 0 1 0 0 empty empty empty 0 -9 0 10 -262144
-1 -1 0 1;
#X text 742 224 Volume Slider;
#X obj 673 176 tabread4~ action;
#X msg 228 54 read -resize ../audio/ambience_melody.wav ambience;
#X msg 418 79 read -resize ../audio/suspense_bass.wav suspense;
#X msg 673 60 read -resize ../audio/action_perc.wav action;
#X connect 0 0 24 0;
#X connect 1 0 2 0;
#X connect 3 0 16 0;
#X connect 4 0 31 0;
#X connect 4 0 33 0;
#X connect 4 0 32 0;
#X connect 8 0 0 0;
#X connect 8 0 3 0;
#X connect 8 0 9 0;
#X connect 9 0 1 0;
#X connect 9 0 4 0;
#X connect 9 0 10 0;
#X connect 10 0 14 0;
#X connect 11 0 22 0;
#X connect 12 0 13 0;
#X connect 12 0 13 1;
#X connect 14 0 12 1;
#X connect 16 0 20 0;
#X connect 17 0 23 0;
#X connect 18 0 19 0;
#X connect 18 0 19 1;
#X connect 20 0 18 1;
#X connect 22 0 12 0;
#X connect 23 0 18 0;
#X connect 24 0 28 0;
#X connect 25 0 30 0;
#X connect 26 0 27 0;
#X connect 26 0 27 1;
#X connect 28 0 26 1;
#X connect 30 0 26 0;
#X connect 31 0 11 0;
#X connect 32 0 17 0;
#X connect 33 0 25 0;
